<svg width="240" height="210" viewBox="0 0 240 210" fill="none" xmlns="http://www.w3.org/2000/svg">
<path d="M120 13L215 48L120 93L25 48L120 13Z" fill="#16344B" stroke="#F5F5DC" stroke-width="6"/>
<path d="M120 93V173L215 128V48L120 93Z" fill="#244262" stroke="#F5F5DC" stroke-width="6"/>
<path d="M120 93V173L25 128V48L120 93Z" fill="#2C4762" stroke="#F5F5DC" stroke-width="6"/>
<path opacity="0.92" d="M179.333 71.5L172.5 105.5L183.5 98.5L169.333 142L175 108L165.5 113.5L179.333 73V71.5Z" fill="#FFD600" stroke="#FFD600" stroke-width="2"/>
<path d="M48.8919 180.273C48.7299 178.905 48.0732 177.844 46.9217 177.088C45.7702 176.332 44.3578 175.955 42.6845 175.955C41.461 175.955 40.3904 176.152 39.4728 176.548C38.5642 176.944 37.8535 177.488 37.3407 178.181C36.8369 178.874 36.5851 179.661 36.5851 180.543C36.5851 181.28 36.7605 181.915 37.1113 182.445C37.4712 182.967 37.93 183.403 38.4877 183.754C39.0455 184.096 39.6303 184.379 40.242 184.604C40.8538 184.82 41.416 184.996 41.9288 185.131L44.7356 185.886C45.4553 186.075 46.256 186.336 47.1376 186.669C48.0282 187.002 48.8784 187.456 49.688 188.032C50.5067 188.599 51.1814 189.327 51.7122 190.218C52.243 191.109 52.5083 192.202 52.5083 193.497C52.5083 194.991 52.117 196.34 51.3343 197.545C50.5607 198.751 49.4271 199.709 47.9338 200.42C46.4494 201.13 44.6457 201.486 42.5225 201.486C40.5434 201.486 38.8296 201.166 37.3812 200.528C35.9418 199.889 34.8083 198.998 33.9806 197.856C33.162 196.713 32.6987 195.386 32.5907 193.875H36.0453C36.1352 194.919 36.4861 195.782 37.0978 196.466C37.7186 197.141 38.5012 197.644 39.4458 197.977C40.3994 198.301 41.425 198.463 42.5225 198.463C43.8 198.463 44.947 198.256 45.9636 197.842C46.9802 197.42 47.7853 196.835 48.3791 196.088C48.9728 195.332 49.2697 194.451 49.2697 193.443C49.2697 192.526 49.0133 191.779 48.5005 191.203C47.9877 190.627 47.313 190.16 46.4764 189.8C45.6397 189.44 44.7356 189.125 43.764 188.855L40.3635 187.884C38.2044 187.263 36.4951 186.377 35.2356 185.225C33.9761 184.074 33.3464 182.567 33.3464 180.705C33.3464 179.157 33.7647 177.808 34.6014 176.656C35.447 175.496 36.5806 174.596 38.002 173.957C39.4324 173.31 41.0292 172.986 42.7924 172.986C44.5737 172.986 46.157 173.305 47.5424 173.944C48.9279 174.574 50.0254 175.437 50.835 176.535C51.6537 177.632 52.0855 178.878 52.1305 180.273H48.8919ZM60.7635 188.531V201H57.5788V173.364H60.7635V183.511H61.0334C61.5192 182.441 62.2479 181.591 63.2195 180.961C64.2 180.322 65.5045 180.003 67.1328 180.003C68.5452 180.003 69.7822 180.286 70.8438 180.853C71.9053 181.411 72.7285 182.27 73.3132 183.43C73.907 184.582 74.2038 186.048 74.2038 187.83V201H71.0192V188.045C71.0192 186.399 70.5919 185.126 69.7372 184.227C68.8916 183.318 67.7176 182.864 66.2152 182.864C65.1716 182.864 64.236 183.084 63.4084 183.525C62.5897 183.966 61.942 184.609 61.4652 185.455C60.9974 186.3 60.7635 187.326 60.7635 188.531ZM88.4505 201.432C86.5792 201.432 84.9374 200.987 83.525 200.096C82.1216 199.205 81.0241 197.959 80.2324 196.358C79.4498 194.757 79.0584 192.885 79.0584 190.744C79.0584 188.585 79.4498 186.701 80.2324 185.09C81.0241 183.48 82.1216 182.229 83.525 181.339C84.9374 180.448 86.5792 180.003 88.4505 180.003C90.3217 180.003 91.959 180.448 93.3624 181.339C94.7748 182.229 95.8723 183.48 96.655 185.09C97.4467 186.701 97.8425 188.585 97.8425 190.744C97.8425 192.885 97.4467 194.757 96.655 196.358C95.8723 197.959 94.7748 199.205 93.3624 200.096C91.959 200.987 90.3217 201.432 88.4505 201.432ZM88.4505 198.571C89.8719 198.571 91.0414 198.207 91.959 197.478C92.8766 196.749 93.5558 195.791 93.9966 194.604C94.4374 193.416 94.6578 192.13 94.6578 190.744C94.6578 189.359 94.4374 188.068 93.9966 186.871C93.5558 185.675 92.8766 184.708 91.959 183.97C91.0414 183.232 89.8719 182.864 88.4505 182.864C87.0291 182.864 85.8596 183.232 84.9419 183.97C84.0243 184.708 83.3451 185.675 82.9043 186.871C82.4635 188.068 82.2431 189.359 82.2431 190.744C82.2431 192.13 82.4635 193.416 82.9043 194.604C83.3451 195.791 84.0243 196.749 84.9419 197.478C85.8596 198.207 87.0291 198.571 88.4505 198.571ZM102.704 208.773V180.273H105.781V183.565H106.158C106.392 183.205 106.716 182.747 107.13 182.189C107.553 181.622 108.156 181.118 108.938 180.678C109.73 180.228 110.8 180.003 112.15 180.003C113.895 180.003 115.433 180.439 116.765 181.312C118.096 182.184 119.135 183.421 119.882 185.023C120.629 186.624 121.002 188.513 121.002 190.69C121.002 192.885 120.629 194.788 119.882 196.398C119.135 198 118.101 199.241 116.778 200.123C115.456 200.996 113.931 201.432 112.204 201.432C110.872 201.432 109.806 201.211 109.006 200.771C108.205 200.321 107.589 199.812 107.157 199.246C106.725 198.67 106.392 198.193 106.158 197.815H105.888V208.773H102.704ZM105.835 190.636C105.835 192.202 106.064 193.583 106.523 194.779C106.982 195.967 107.652 196.898 108.533 197.572C109.415 198.238 110.495 198.571 111.772 198.571C113.103 198.571 114.214 198.22 115.105 197.518C116.005 196.808 116.679 195.854 117.129 194.658C117.588 193.452 117.817 192.112 117.817 190.636C117.817 189.179 117.593 187.866 117.143 186.696C116.702 185.518 116.032 184.586 115.132 183.903C114.241 183.21 113.121 182.864 111.772 182.864C110.477 182.864 109.388 183.192 108.506 183.849C107.625 184.496 106.959 185.405 106.509 186.575C106.059 187.735 105.835 189.089 105.835 190.636ZM141.406 180.273C141.244 178.905 140.587 177.844 139.435 177.088C138.284 176.332 136.871 175.955 135.198 175.955C133.975 175.955 132.904 176.152 131.987 176.548C131.078 176.944 130.367 177.488 129.854 178.181C129.351 178.874 129.099 179.661 129.099 180.543C129.099 181.28 129.274 181.915 129.625 182.445C129.985 182.967 130.444 183.403 131.001 183.754C131.559 184.096 132.144 184.379 132.756 184.604C133.367 184.82 133.93 184.996 134.442 185.131L137.249 185.886C137.969 186.075 138.77 186.336 139.651 186.669C140.542 187.002 141.392 187.456 142.202 188.032C143.02 188.599 143.695 189.327 144.226 190.218C144.757 191.109 145.022 192.202 145.022 193.497C145.022 194.991 144.631 196.34 143.848 197.545C143.074 198.751 141.941 199.709 140.447 200.42C138.963 201.13 137.159 201.486 135.036 201.486C133.057 201.486 131.343 201.166 129.895 200.528C128.455 199.889 127.322 198.998 126.494 197.856C125.676 196.713 125.212 195.386 125.104 193.875H128.559C128.649 194.919 129 195.782 129.612 196.466C130.232 197.141 131.015 197.644 131.96 197.977C132.913 198.301 133.939 198.463 135.036 198.463C136.314 198.463 137.461 198.256 138.477 197.842C139.494 197.42 140.299 196.835 140.893 196.088C141.487 195.332 141.783 194.451 141.783 193.443C141.783 192.526 141.527 191.779 141.014 191.203C140.501 190.627 139.827 190.16 138.99 189.8C138.153 189.44 137.249 189.125 136.278 188.855L132.877 187.884C130.718 187.263 129.009 186.377 127.749 185.225C126.49 184.074 125.86 182.567 125.86 180.705C125.86 179.157 126.278 177.808 127.115 176.656C127.961 175.496 129.094 174.596 130.516 173.957C131.946 173.31 133.543 172.986 135.306 172.986C137.087 172.986 138.671 173.305 140.056 173.944C141.442 174.574 142.539 175.437 143.349 176.535C144.167 177.632 144.599 178.878 144.644 180.273H141.406ZM154.789 201L148.473 180.273H151.82L156.3 196.142H156.516L160.942 180.273H164.343L168.715 196.088H168.931L173.411 180.273H176.757L170.442 201H167.311L162.777 185.077H162.453L157.919 201H154.789ZM180.968 201V180.273H184.152V201H180.968ZM182.587 176.818C181.966 176.818 181.431 176.607 180.981 176.184C180.54 175.761 180.32 175.253 180.32 174.659C180.32 174.065 180.54 173.557 180.981 173.134C181.431 172.711 181.966 172.5 182.587 172.5C183.208 172.5 183.738 172.711 184.179 173.134C184.629 173.557 184.854 174.065 184.854 174.659C184.854 175.253 184.629 175.761 184.179 176.184C183.738 176.607 183.208 176.818 182.587 176.818ZM199.215 180.273V182.972H188.042V180.273H199.215ZM191.388 201V177.412C191.388 176.224 191.667 175.235 192.225 174.443C192.783 173.652 193.507 173.058 194.398 172.662C195.288 172.266 196.228 172.068 197.218 172.068C198.001 172.068 198.639 172.131 199.134 172.257C199.629 172.383 199.998 172.5 200.241 172.608L199.323 175.361C199.161 175.307 198.936 175.239 198.648 175.158C198.37 175.077 198.001 175.037 197.542 175.037C196.489 175.037 195.729 175.302 195.261 175.833C194.803 176.364 194.573 177.142 194.573 178.168V201H191.388ZM212.693 180.273V182.972H201.951V180.273H212.693ZM205.082 175.307H208.267V195.062C208.267 195.962 208.397 196.637 208.658 197.087C208.928 197.527 209.27 197.824 209.683 197.977C210.106 198.121 210.552 198.193 211.019 198.193C211.37 198.193 211.658 198.175 211.883 198.139C212.108 198.094 212.288 198.058 212.423 198.031L213.07 200.892C212.855 200.973 212.553 201.054 212.166 201.135C211.78 201.225 211.289 201.27 210.695 201.27C209.796 201.27 208.914 201.076 208.051 200.69C207.196 200.303 206.485 199.714 205.919 198.922C205.361 198.13 205.082 197.132 205.082 195.926V175.307Z" fill="#0C0C0C"/>
</svg>
